<svg width="36" height="43" viewBox="0 0 36 43" fill="none" xmlns="http://www.w3.org/2000/svg">
<path fill-rule="evenodd" clip-rule="evenodd" d="M25.0184 34.2391C31.4725 31.5307 36 25.2001 36 17.8224C36 7.97934 27.9411 0 18 0C8.05887 0 0 7.97934 0 17.8224C0 25.2001 4.52752 31.5307 10.9816 34.2391L16.3464 42.1251C17.1401 43.2919 18.8599 43.2919 19.6536 42.1251L25.0184 34.2391Z" fill="#EF4D1A"/>
<g clip-path="url(#clip0)">
<path d="M13 8.55681V8.48063C13 8.48027 13 8.4801 13 8.4801C13 8.4801 13 8.48028 13 8.48063C12.9998 8.48338 12.9982 8.49679 12.9867 8.51853C12.9706 8.54925 12.938 8.58871 12.888 8.61641C12.9224 8.59736 12.9597 8.57738 13 8.55681ZM13 8.55681L13 29H23V10.0884M13 8.55681C13.716 8.19107 15.3547 7.64014 17.5039 8.86824C19.3581 9.92783 21.0188 10.0196 22.283 9.77847C22.4077 9.75468 22.6286 9.78783 22.8222 9.91025C22.9705 10.004 22.9963 10.0755 23 10.0884M23 10.0884V10.0806C23 10.0874 23.0006 10.0905 23.0005 10.0905C23.0005 10.0905 23.0004 10.0898 23 10.0884Z" stroke="white" stroke-width="2"/>
<line x1="13.4855" y1="20.1425" x2="23.4855" y2="14.1425" stroke="white" stroke-width="2"/>
<line x1="18.3753" y1="17.7809" x2="13.3753" y2="13.7809" stroke="white" stroke-width="2"/>
</g>
<defs>
<clipPath id="clip0">
<rect width="24" height="24" fill="white" transform="translate(6 6)"/>
</clipPath>
</defs>
</svg>
