<svg width="36" height="43" viewBox="0 0 36 43" fill="none" xmlns="http://www.w3.org/2000/svg">
<mask id="path-1-inside-1" fill="white">
<path fill-rule="evenodd" clip-rule="evenodd" d="M25.0184 34.2391C31.4725 31.5307 36 25.2001 36 17.8224C36 7.97934 27.9411 0 18 0C8.05887 0 0 7.97934 0 17.8224C0 25.2001 4.52752 31.5307 10.9816 34.2391L16.3464 42.1251C17.1401 43.2919 18.8599 43.2919 19.6536 42.1251L25.0184 34.2391Z"/>
</mask>
<path fill-rule="evenodd" clip-rule="evenodd" d="M25.0184 34.2391C31.4725 31.5307 36 25.2001 36 17.8224C36 7.97934 27.9411 0 18 0C8.05887 0 0 7.97934 0 17.8224C0 25.2001 4.52752 31.5307 10.9816 34.2391L16.3464 42.1251C17.1401 43.2919 18.8599 43.2919 19.6536 42.1251L25.0184 34.2391Z" fill="white"/>
<path d="M25.0184 34.2391L24.2445 32.3949L23.6981 32.6242L23.3648 33.1142L25.0184 34.2391ZM10.9816 34.2391L12.6352 33.1142L12.3019 32.6242L11.7555 32.3949L10.9816 34.2391ZM16.3464 42.1251L14.6927 43.2501H14.6927L16.3464 42.1251ZM19.6536 42.1251L21.3073 43.2501L21.3073 43.2501L19.6536 42.1251ZM34 17.8224C34 24.3575 29.9905 29.9837 24.2445 32.3949L25.7923 36.0833C32.9544 33.0778 38 26.0426 38 17.8224H34ZM18 2C26.8553 2 34 9.10257 34 17.8224H38C38 6.85612 29.0269 -2 18 -2V2ZM2 17.8224C2 9.10257 9.1447 2 18 2V-2C6.97305 -2 -2 6.85612 -2 17.8224H2ZM11.7555 32.3949C6.00947 29.9837 2 24.3575 2 17.8224H-2C-2 26.0426 3.04556 33.0778 10.2077 36.0833L11.7555 32.3949ZM18 41.0002L12.6352 33.1142L9.32798 35.3641L14.6927 43.2501L18 41.0002ZM18 41.0002L18 41.0002L14.6927 43.2501C16.2802 45.5835 19.7198 45.5835 21.3073 43.2501L18 41.0002ZM23.3648 33.1142L18 41.0002L21.3073 43.2501L26.672 35.3641L23.3648 33.1142Z" fill="#EF4D1A" mask="url(#path-1-inside-1)"/>
</svg>
