<svg width="56" height="63" viewBox="0 0 56 63" fill="none" xmlns="http://www.w3.org/2000/svg">
<g filter="url(#filter0_d)">
<mask id="path-1-inside-1" fill="white">
<path fill-rule="evenodd" clip-rule="evenodd" d="M35.0184 40.2391C41.4725 37.5307 46 31.2001 46 23.8224C46 13.9793 37.9411 6 28 6C18.0589 6 10 13.9793 10 23.8224C10 31.2001 14.5275 37.5307 20.9816 40.2391L26.3464 48.1251C27.1401 49.2919 28.8599 49.2919 29.6536 48.1251L35.0184 40.2391Z"/>
</mask>
<path fill-rule="evenodd" clip-rule="evenodd" d="M35.0184 40.2391C41.4725 37.5307 46 31.2001 46 23.8224C46 13.9793 37.9411 6 28 6C18.0589 6 10 13.9793 10 23.8224C10 31.2001 14.5275 37.5307 20.9816 40.2391L26.3464 48.1251C27.1401 49.2919 28.8599 49.2919 29.6536 48.1251L35.0184 40.2391Z" fill="white"/>
<path d="M35.0184 40.2391L34.2445 38.3949L33.6981 38.6242L33.3648 39.1142L35.0184 40.2391ZM20.9816 40.2391L22.6352 39.1142L22.3019 38.6242L21.7555 38.3949L20.9816 40.2391ZM26.3464 48.1251L24.6927 49.2501H24.6927L26.3464 48.1251ZM29.6536 48.1251L31.3073 49.2501L31.3073 49.2501L29.6536 48.1251ZM44 23.8224C44 30.3575 39.9905 35.9837 34.2445 38.3949L35.7923 42.0833C42.9544 39.0778 48 32.0426 48 23.8224H44ZM28 8C36.8553 8 44 15.1026 44 23.8224H48C48 12.8561 39.0269 4 28 4V8ZM12 23.8224C12 15.1026 19.1447 8 28 8V4C16.9731 4 8 12.8561 8 23.8224H12ZM21.7555 38.3949C16.0095 35.9837 12 30.3575 12 23.8224H8C8 32.0426 13.0456 39.0778 20.2077 42.0833L21.7555 38.3949ZM28 47.0002L22.6352 39.1142L19.328 41.3641L24.6927 49.2501L28 47.0002ZM28 47.0002L28 47.0002L24.6927 49.2501C26.2802 51.5835 29.7198 51.5835 31.3073 49.2501L28 47.0002ZM33.3648 39.1142L28 47.0002L31.3073 49.2501L36.672 41.3641L33.3648 39.1142Z" fill="#EF4D1A" mask="url(#path-1-inside-1)"/>
<g clip-path="url(#clip0)">
<path d="M23 14.5568V14.4806C23 14.4803 23 14.4801 23 14.4801C23 14.4801 23 14.4803 23 14.4806C22.9998 14.4834 22.9982 14.4968 22.9867 14.5185C22.9706 14.5493 22.938 14.5887 22.888 14.6164C22.9224 14.5974 22.9597 14.5774 23 14.5568ZM23 14.5568L23 35H33V16.0884M23 14.5568C23.716 14.1911 25.3547 13.6401 27.5039 14.8682C29.3581 15.9278 31.0188 16.0196 32.283 15.7785C32.4077 15.7547 32.6286 15.7878 32.8222 15.9103C32.9705 16.004 32.9963 16.0755 33 16.0884M33 16.0884V16.0806C33 16.0874 33.0006 16.0905 33.0005 16.0905C33.0005 16.0905 33.0004 16.0898 33 16.0884Z" stroke="#EF4D1A" stroke-width="2"/>
<line x1="23.4855" y1="26.1425" x2="33.4855" y2="20.1425" stroke="#EF4D1A" stroke-width="2"/>
<line x1="28.3753" y1="23.7809" x2="23.3753" y2="19.7809" stroke="#EF4D1A" stroke-width="2"/>
</g>
</g>
<defs>
<filter id="filter0_d" x="0" y="0" width="56" height="63.0002" filterUnits="userSpaceOnUse" color-interpolation-filters="sRGB">
<feFlood flood-opacity="0" result="BackgroundImageFix"/>
<feColorMatrix in="SourceAlpha" type="matrix" values="0 0 0 0 0 0 0 0 0 0 0 0 0 0 0 0 0 0 127 0" result="hardAlpha"/>
<feOffset dy="4"/>
<feGaussianBlur stdDeviation="5"/>
<feComposite in2="hardAlpha" operator="out"/>
<feColorMatrix type="matrix" values="0 0 0 0 0 0 0 0 0 0 0 0 0 0 0 0 0 0 0.1 0"/>
<feBlend mode="normal" in2="BackgroundImageFix" result="effect1_dropShadow"/>
<feBlend mode="normal" in="SourceGraphic" in2="effect1_dropShadow" result="shape"/>
</filter>
<clipPath id="clip0">
<rect width="24" height="24" fill="white" transform="translate(16 12)"/>
</clipPath>
</defs>
</svg>
