<svg width="36" height="36" viewBox="0 0 36 36" fill="none" xmlns="http://www.w3.org/2000/svg">
<circle cx="18" cy="18" r="18" fill="#F6F6F6"/>
<path d="M28 8H8C7.73478 8 7.48043 8.10536 7.29289 8.29289C7.10536 8.48043 7 8.73478 7 9V13C7.00174 13.6189 7.19488 14.2222 7.55294 14.7271C7.911 15.2319 8.41645 15.6137 9 15.82V27C9 27.2652 9.10536 27.5196 9.29289 27.7071C9.48043 27.8946 9.73478 28 10 28H26C26.2652 28 26.5196 27.8946 26.7071 27.7071C26.8946 27.5196 27 27.2652 27 27V15.82C27.5835 15.6137 28.089 15.2319 28.4471 14.7271C28.8051 14.2222 28.9983 13.6189 29 13V9C29 8.73478 28.8946 8.48043 28.7071 8.29289C28.5196 8.10536 28.2652 8 28 8ZM21 10H23V13C23 13.2652 22.8946 13.5196 22.7071 13.7071C22.5196 13.8946 22.2652 14 22 14C21.7348 14 21.4804 13.8946 21.2929 13.7071C21.1054 13.5196 21 13.2652 21 13V10ZM17 10H19V13C19 13.2652 18.8946 13.5196 18.7071 13.7071C18.5196 13.8946 18.2652 14 18 14C17.7348 14 17.4804 13.8946 17.2929 13.7071C17.1054 13.5196 17 13.2652 17 13V10ZM13 10H15V13C15 13.2652 14.8946 13.5196 14.7071 13.7071C14.5196 13.8946 14.2652 14 14 14C13.7348 14 13.4804 13.8946 13.2929 13.7071C13.1054 13.5196 13 13.2652 13 13V10ZM10 14C9.73478 14 9.48043 13.8946 9.29289 13.7071C9.10536 13.5196 9 13.2652 9 13V10H11V13C11 13.2652 10.8946 13.5196 10.7071 13.7071C10.5196 13.8946 10.2652 14 10 14ZM20 26H16V22C16 21.4696 16.2107 20.9609 16.5858 20.5858C16.9609 20.2107 17.4696 20 18 20C18.5304 20 19.0391 20.2107 19.4142 20.5858C19.7893 20.9609 20 21.4696 20 22V26ZM25 26H22V22C22 20.9391 21.5786 19.9217 20.8284 19.1716C20.0783 18.4214 19.0609 18 18 18C16.9391 18 15.9217 18.4214 15.1716 19.1716C14.4214 19.9217 14 20.9391 14 22V26H11V15.82C11.3676 15.6836 11.7066 15.4801 12 15.22C12.55 15.712 13.2621 15.9839 14 15.9839C14.7379 15.9839 15.45 15.712 16 15.22C16.55 15.712 17.2621 15.9839 18 15.9839C18.7379 15.9839 19.45 15.712 20 15.22C20.55 15.712 21.2621 15.9839 22 15.9839C22.7379 15.9839 23.45 15.712 24 15.22C24.2934 15.4801 24.6324 15.6836 25 15.82V26ZM27 13C27 13.2652 26.8946 13.5196 26.7071 13.7071C26.5196 13.8946 26.2652 14 26 14C25.7348 14 25.4804 13.8946 25.2929 13.7071C25.1054 13.5196 25 13.2652 25 13V10H27V13Z" fill="#2B2A29"/>
</svg>
